<svg width="18" height="18" viewBox="0 0 18 18" fill="none" xmlns="http://www.w3.org/2000/svg">
    <path d="m15.949 5.193-3.142-3.142a1.406 1.406 0 0 0-1.989 0L8.966 3.903l-6.469 6.47-.116.116a1.397 1.397 0 0 0-.412.994v3.142a1.408 1.408 0 0 0 1.406 1.406h3.142a1.397 1.397 0 0 0 .994-.412l6.586-6.585 1.852-1.852a1.408 1.408 0 0 0 0-1.989zm-8.918 8.52-2.744-2.744 5.276-5.276 2.744 2.745-5.276 5.275zm-3.375-.988 1.62 1.619h-1.62v-1.62zm9.844-5.48L10.756 4.5l1.056-1.057 2.745 2.744L13.5 7.245z" fill="#fff"/>
</svg>
